<svg width="129" height="102" viewBox="0 0 129 102" fill="none" xmlns="http://www.w3.org/2000/svg">
<path d="M19.221 80.9845C19.2204 80.5209 19.1835 80.1564 19.1102 79.8909C19.037 79.6253 18.8726 79.4302 18.6173 79.3056C18.3619 79.1757 17.966 79.0929 17.4294 79.0571C16.8929 79.0161 16.1585 78.9884 15.2262 78.974L10.8824 78.9171C9.80945 78.9029 8.94739 78.8389 8.2962 78.7251C7.64501 78.6114 7.15259 78.4324 6.81894 78.188C6.48528 77.9384 6.26089 77.6054 6.14577 77.1889C6.03586 76.7723 5.9805 76.2516 5.97969 75.6266C5.97881 74.9443 6.0536 74.3817 6.20407 73.9388C6.35975 73.4959 6.63794 73.1492 7.03866 72.8986C7.44459 72.6481 8.01728 72.4729 8.75673 72.373C9.49618 72.2679 10.4518 72.2145 11.6237 72.213L14.9675 72.2087C16.03 72.2073 16.9154 72.24 17.6238 72.3068C18.3323 72.3736 18.895 72.5291 19.3119 72.7734C19.7289 73.0176 20.0263 73.3975 20.204 73.9129C20.387 74.4283 20.4791 75.1365 20.4802 76.0375L18.9802 76.0395C18.9793 75.3415 18.9109 74.8156 18.7751 74.4616C18.6444 74.1024 18.4253 73.8579 18.1179 73.7281C17.8156 73.5982 17.4067 73.5285 16.891 73.5187C16.3754 73.509 15.7348 73.5046 14.9691 73.5056L11.7035 73.5098C10.7712 73.511 10.0239 73.5302 9.4614 73.5674C8.90416 73.6046 8.48239 73.6884 8.1961 73.819C7.90981 73.9496 7.71737 74.1582 7.61879 74.4448C7.52541 74.7313 7.47904 75.1246 7.47969 75.6246C7.48023 76.0465 7.51452 76.385 7.58256 76.6401C7.6506 76.8953 7.8019 77.0904 8.03645 77.2255C8.2762 77.3554 8.6435 77.446 9.13836 77.4975C9.63321 77.5437 10.3077 77.5715 11.1619 77.5808L15.8182 77.6373C16.912 77.6515 17.7845 77.7155 18.4357 77.8292C19.0921 77.9377 19.5819 78.1168 19.9051 78.3664C20.2336 78.616 20.4501 78.9542 20.5549 79.3812C20.6648 79.8029 20.7202 80.3367 20.721 80.9825C20.7219 81.6856 20.655 82.2769 20.5202 82.7562C20.3906 83.2303 20.1359 83.6109 19.756 83.8978C19.3762 84.1848 18.827 84.3912 18.1084 84.5172C17.3898 84.6431 16.4446 84.7068 15.2727 84.7083L11.6164 84.713C10.5487 84.7144 9.65284 84.6687 8.92876 84.5759C8.20468 84.4831 7.62632 84.2963 7.19366 84.0156C6.76621 83.7297 6.45837 83.3057 6.27014 82.7434C6.08191 82.1811 5.98719 81.4313 5.98598 80.4938L7.48598 80.4918C7.48693 81.2262 7.54756 81.7938 7.66787 82.1947C7.78818 82.5956 7.99689 82.8844 8.29399 83.0611C8.5963 83.2326 9.0157 83.3362 9.55221 83.372C10.0939 83.4025 10.7814 83.4172 11.6148 83.4162L15.1929 83.4115C16.1252 83.4103 16.8621 83.3807 17.4037 83.3227C17.9453 83.2595 18.3462 83.1444 18.6064 82.9774C18.8666 82.8052 19.0329 82.5602 19.1054 82.2424C19.1832 81.9246 19.2217 81.5053 19.221 80.9845ZM29.4364 84.44L29.43 79.44L22.6709 72.4487L24.6709 72.4462L30.1785 78.314L35.6709 72.4319L37.6709 72.4293L30.93 79.4381L30.9364 84.4381L29.4364 84.44ZM52.9553 80.9408C52.9548 80.4773 52.9178 80.1128 52.8446 79.8472C52.7713 79.5817 52.607 79.3866 52.3516 79.2619C52.0962 79.1321 51.7003 79.0492 51.1638 79.0135C50.6273 78.9725 49.8929 78.9448 48.9606 78.9304L44.6167 78.8735C43.5438 78.8593 42.6817 78.7953 42.0305 78.6815C41.3794 78.5678 40.8869 78.3887 40.5533 78.1444C40.2196 77.8948 39.9952 77.5618 39.8801 77.1452C39.7702 76.7287 39.7148 76.208 39.714 75.583C39.7132 74.9007 39.7879 74.3381 39.9384 73.8952C40.0941 73.4523 40.3723 73.1055 40.773 72.855C41.1789 72.6045 41.7516 72.4293 42.4911 72.3294C43.2305 72.2242 44.1862 72.1709 45.3581 72.1694L48.7018 72.1651C49.7643 72.1637 50.6498 72.1964 51.3582 72.2632C52.0666 72.33 52.6293 72.4855 53.0463 72.7298C53.4633 72.974 53.7606 73.3539 53.9384 73.8692C54.1214 74.3846 54.2134 75.0929 54.2146 75.9939L52.7146 75.9958C52.7137 75.2979 52.6453 74.772 52.5094 74.418C52.3787 74.0588 52.1597 73.8143 51.8522 73.6844C51.55 73.5546 51.141 73.4848 50.6254 73.4751C50.1097 73.4653 49.4691 73.461 48.7035 73.462L45.4379 73.4662C44.5056 73.4674 43.7582 73.4866 43.1958 73.5238C42.6385 73.5609 42.2167 73.6448 41.9304 73.7754C41.6442 73.906 41.4517 74.1146 41.3531 74.4011C41.2598 74.6877 41.2134 75.081 41.214 75.581C41.2146 76.0029 41.2489 76.3414 41.3169 76.5965C41.3849 76.8516 41.5362 77.0467 41.7708 77.1819C42.0105 77.3118 42.3778 77.4024 42.8727 77.4539C43.3676 77.5001 44.0421 77.5279 44.8963 77.5372L49.5526 77.5937C50.6464 77.6079 51.5188 77.6719 52.17 77.7856C52.8264 77.8941 53.3162 78.0732 53.6395 78.3228C53.9679 78.5723 54.1845 78.9106 54.2892 79.3375C54.3991 79.7593 54.4545 80.2931 54.4553 80.9389C54.4563 81.642 54.3893 82.2333 54.2545 82.7126C54.1249 83.1867 53.8702 83.5673 53.4904 83.8542C53.1105 84.1412 52.5613 84.3476 51.8427 84.4735C51.1241 84.5995 50.1789 84.6632 49.007 84.6647L45.3508 84.6694C44.2831 84.6708 43.3872 84.6251 42.6631 84.5323C41.939 84.4395 41.3607 84.2527 40.928 83.972C40.5006 83.6861 40.1927 83.262 40.0045 82.6998C39.8163 82.1375 39.7215 81.3876 39.7203 80.4501L41.2203 80.4482C41.2213 81.1826 41.2819 81.7502 41.4022 82.1511C41.5225 82.552 41.7312 82.8408 42.0283 83.0175C42.3306 83.189 42.75 83.2926 43.2866 83.3283C43.8283 83.3589 44.5158 83.3736 45.3491 83.3725L48.9272 83.3679C49.8595 83.3667 50.5965 83.3371 51.1381 83.2791C51.6796 83.2159 52.0805 83.1008 52.3407 82.9338C52.6009 82.7616 52.7673 82.5166 52.8398 82.1988C52.9175 81.881 52.956 81.4617 52.9553 80.9408ZM62.1551 84.3977L62.1412 73.6477L56.1412 73.6555L56.1396 72.4055L69.6396 72.388L69.6412 73.638L63.6412 73.6458L63.6551 84.3958L62.1551 84.3977ZM71.8895 84.3851L71.874 72.3851L83.6552 72.3699L83.6568 73.6199L73.3756 73.6332L73.3808 77.6332L83.2323 77.6204L83.2339 78.8704L73.3824 78.8832L73.3879 83.1332L83.8879 83.1196L83.8895 84.3696L71.8895 84.3851ZM85.9207 84.367L85.9052 72.367L88.1396 72.3641L95.4101 82.1438L102.546 72.3455L104.78 72.3426L104.796 84.3426L103.296 84.3445L103.282 73.7039L96.1307 83.5647L94.7713 83.5665L87.407 73.7244L87.4207 84.365L85.9207 84.367ZM120.596 80.8534C120.595 80.3898 120.558 80.0253 120.485 79.7598C120.412 79.4942 120.248 79.2991 119.992 79.1745C119.737 79.0446 119.341 78.9618 118.804 78.926C118.268 78.885 117.533 78.8573 116.601 78.8429L112.257 78.786C111.184 78.7718 110.322 78.7078 109.671 78.5941C109.02 78.4803 108.528 78.3013 108.194 78.0569C107.86 77.8073 107.636 77.4743 107.521 77.0578C107.411 76.6412 107.355 76.1205 107.355 75.4955C107.354 74.8132 107.429 74.2506 107.579 73.8077C107.735 73.3648 108.013 73.0181 108.414 72.7676C108.82 72.517 109.392 72.3418 110.132 72.2419C110.871 72.1368 111.827 72.0835 112.999 72.0819L116.342 72.0776C117.405 72.0762 118.29 72.1089 118.999 72.1757C119.707 72.2425 120.27 72.3981 120.687 72.6423C121.104 72.8866 121.401 73.2664 121.579 73.7818C121.762 74.2972 121.854 75.0054 121.855 75.9064L120.355 75.9084C120.354 75.2104 120.286 74.6845 120.15 74.3305C120.019 73.9713 119.8 73.7268 119.493 73.597C119.191 73.4672 118.782 73.3974 118.266 73.3876C117.75 73.3779 117.11 73.3735 116.344 73.3745L113.078 73.3787C112.146 73.3799 111.399 73.3991 110.836 73.4363C110.279 73.4735 109.857 73.5574 109.571 73.6879C109.285 73.8185 109.092 74.0271 108.994 74.3137C108.9 74.6003 108.854 74.9935 108.855 75.4935C108.855 75.9154 108.889 76.2539 108.957 76.509C109.026 76.7642 109.177 76.9593 109.411 77.0944C109.651 77.2243 110.018 77.315 110.513 77.3664C111.008 77.4126 111.683 77.4404 112.537 77.4497L117.193 77.5062C118.287 77.5204 119.159 77.5844 119.811 77.6981C120.467 77.8067 120.957 77.9857 121.28 78.2353C121.608 78.4849 121.825 78.8231 121.93 79.2501C122.04 79.6718 122.095 80.2056 122.096 80.8514C122.097 81.5546 122.03 82.1458 121.895 82.6251C121.765 83.0993 121.511 83.4798 121.131 83.7667C120.751 84.0537 120.202 84.2601 119.483 84.3861C118.765 84.512 117.819 84.5757 116.648 84.5772L112.991 84.582C111.924 84.5833 111.028 84.5376 110.304 84.4448C109.58 84.352 109.001 84.1652 108.569 83.8846C108.141 83.5986 107.833 83.1746 107.645 82.6123C107.457 82.05 107.362 81.3002 107.361 80.3627L108.861 80.3607C108.862 81.0951 108.922 81.6627 109.043 82.0636C109.163 82.4645 109.372 82.7533 109.669 82.93C109.971 83.1015 110.391 83.2051 110.927 83.2409C111.469 83.2714 112.156 83.2862 112.99 83.2851L116.568 83.2805C117.5 83.2793 118.237 83.2497 118.779 83.1917C119.32 83.1285 119.721 83.0134 119.981 82.8464C120.242 82.6741 120.408 82.4291 120.48 82.1113C120.558 81.7935 120.597 81.3742 120.596 80.8534Z" fill="white"/>
<path d="M11.4436 65.4633L20.1742 50.452L22.6742 50.4487L31.4435 65.4374L29.256 65.4402L27.3766 62.0052L15.5016 62.0205L13.6311 65.4604L11.4436 65.4633ZM16.4371 60.4568L26.4371 60.4439L21.4258 51.7003L16.4371 60.4568ZM33.9435 65.4342L33.9241 50.4342L48.6507 50.4151L48.6527 51.9776L35.8012 51.9943L35.8076 56.9942L48.1221 56.9783L48.1241 58.5408L35.8096 58.5567L35.8165 63.8692L48.9415 63.8523L48.9435 65.4148L33.9435 65.4342ZM51.4632 50.4115L61.5022 50.3985C62.9671 50.3966 64.1456 50.4602 65.0377 50.5893C65.9363 50.7183 66.6169 50.942 67.0795 51.2604C67.5422 51.5789 67.8553 52.0147 68.0187 52.5678C68.1822 53.121 68.2645 53.8208 68.2656 54.6671L68.2661 55.0577C68.2671 55.839 68.1736 56.5129 67.9855 57.0796C67.8039 57.6397 67.4497 58.0959 66.9228 58.4482C66.3959 58.7939 65.615 59.039 64.58 59.1836L67.8498 65.3903L65.9748 65.3927L62.7736 59.3227C62.6434 59.3293 62.5066 59.3328 62.3634 59.333C62.2267 59.3331 62.0835 59.3333 61.9337 59.3335L53.3497 59.3446L53.3576 65.4091L51.4826 65.4115L51.4632 50.4115ZM53.3476 57.7235L61.6387 57.7128C62.7519 57.7114 63.6275 57.6744 64.2655 57.602C64.9099 57.523 65.3817 57.3889 65.681 57.1998C65.9867 57.0106 66.1817 56.7434 66.2659 56.3982C66.3501 56.0531 66.3918 55.607 66.3911 55.0602L66.3906 54.6695C66.3898 54.0511 66.3306 53.5628 66.2129 53.2049C66.0953 52.847 65.8605 52.5836 65.5088 52.4148C65.157 52.246 64.6328 52.1393 63.9361 52.0946C63.2394 52.0434 62.3084 52.0186 61.143 52.0201L53.3403 52.0302L53.3476 57.7235ZM71.8341 65.3852L71.8147 50.3852L73.6897 50.3828L73.7091 65.3827L71.8341 65.3852ZM84.1685 65.6817C82.7037 65.6836 81.4991 65.5843 80.5548 65.3837C79.6106 65.1896 78.8712 64.8259 78.3366 64.2928C77.8086 63.7596 77.4365 62.9919 77.2204 61.9895C77.0107 60.9872 76.9049 59.682 76.9028 58.0739L76.8929 50.3786L78.7679 50.3762L78.7778 58.0715C78.7792 59.1783 78.8195 60.0962 78.8986 60.8252C78.9776 61.5543 79.1249 62.1368 79.3403 62.5727C79.5557 63.0086 79.8621 63.3338 80.2595 63.5481C80.6634 63.7624 81.1844 63.9017 81.8225 63.966C82.4606 64.0303 83.2419 64.0618 84.1664 64.0606L87.7016 64.0561C88.6326 64.0549 89.4138 64.0213 90.0452 63.9554C90.6831 63.8894 91.2005 63.7488 91.5974 63.5334C92.0007 63.3181 92.3096 62.9922 92.5239 62.5557C92.7381 62.1192 92.8839 61.5363 92.961 60.8071C93.0382 60.0778 93.0761 59.1598 93.0747 58.053L93.0647 50.3577L94.9397 50.3553L94.9497 58.0506C94.9517 59.6587 94.846 60.9641 94.6325 61.967C94.4254 62.9699 94.0553 63.7386 93.5222 64.2731C92.9955 64.8077 92.2603 65.1732 91.3166 65.3697C90.3728 65.5728 89.1685 65.6753 87.7037 65.6771L84.1685 65.6817ZM114.123 60.9945C114.123 60.4151 114.077 59.9594 113.985 59.6275C113.893 59.2956 113.688 59.0517 113.369 58.8959C113.05 58.7336 112.555 58.63 111.884 58.5853C111.213 58.5341 110.295 58.4995 109.13 58.4815L103.7 58.4104C102.359 58.3926 101.281 58.3126 100.467 58.1704C99.6534 58.0282 99.0379 57.8044 98.6208 57.499C98.2038 57.187 97.9233 56.7707 97.7794 56.25C97.642 55.7294 97.5728 55.0784 97.5718 54.2972C97.5707 53.4443 97.6642 52.7411 97.8522 52.1875C98.0468 51.6338 98.3946 51.2004 98.8955 50.8873C99.4029 50.5741 100.119 50.3551 101.043 50.2302C101.967 50.0988 103.162 50.0321 104.627 50.0303L108.806 50.0248C110.135 50.0231 111.241 50.064 112.127 50.1475C113.012 50.231 113.716 50.4254 114.237 50.7307C114.758 51.036 115.13 51.5108 115.352 52.1551C115.581 52.7993 115.696 53.6846 115.697 54.8109L113.822 54.8133C113.821 53.9409 113.736 53.2834 113.566 52.841C113.403 52.392 113.129 52.0863 112.744 51.9241C112.367 51.7618 111.855 51.6746 111.211 51.6624C110.566 51.6502 109.766 51.6447 108.809 51.6459L104.727 51.6512C103.561 51.6527 102.627 51.6767 101.924 51.7232C101.227 51.7697 100.7 51.8745 100.342 52.0377C99.9844 52.201 99.7439 52.4617 99.6206 52.8199C99.5039 53.1782 99.446 53.6698 99.4468 54.2948C99.4474 54.8221 99.4903 55.2452 99.5754 55.5641C99.6604 55.883 99.8495 56.1269 100.143 56.2958C100.442 56.4582 100.902 56.5715 101.52 56.6358C102.139 56.6936 102.982 56.7283 104.05 56.74L109.87 56.8106C111.237 56.8284 112.328 56.9083 113.142 57.0505C113.962 57.1862 114.575 57.41 114.979 57.722C115.389 58.0339 115.66 58.4567 115.791 58.9904C115.928 59.5176 115.997 60.1848 115.998 60.9921C116 61.871 115.916 62.6101 115.747 63.2092C115.585 63.8019 115.267 64.2776 114.792 64.6363C114.317 64.9949 113.631 65.253 112.733 65.4104C111.834 65.5678 110.653 65.6475 109.188 65.6494L104.618 65.6553C103.283 65.657 102.163 65.5999 101.258 65.4838C100.353 65.3678 99.6301 65.1344 99.0892 64.7835C98.5549 64.4261 98.1701 63.896 97.9348 63.1932C97.6996 62.4904 97.5812 61.553 97.5796 60.3812L99.4546 60.3787C99.4558 61.2967 99.5316 62.0063 99.682 62.5074C99.8324 63.0085 100.093 63.3695 100.465 63.5903C100.843 63.8047 101.367 63.9342 102.037 63.9789C102.715 64.0171 103.574 64.0355 104.616 64.0342L109.088 64.0284C110.254 64.0269 111.175 63.9899 111.852 63.9174C112.529 63.8384 113.03 63.6945 113.355 63.4858C113.68 63.2705 113.888 62.9643 113.979 62.567C114.076 62.1697 114.124 61.6456 114.123 60.9945Z" fill="white"/>
<path d="M114.5 42.8126L69.5 3.31257V17.3126L83 27.8126L18 42.8126" stroke="white" stroke-width="3" stroke-linecap="round"/>
<path d="M18.5 42.8126H114.5" stroke="white" stroke-width="3"/>
</svg>
